<!-- save as: images/logo-google.svg -->
<svg xmlns="http://www.w3.org/2000/svg" width="24" height="24" viewBox="0 0 24 24" aria-hidden="true">
  <!-- Multicolor "G" mark -->
  <path fill="#EA4335" d="M12 10.2v3.6h5.1c-.2 1.2-1.5 3.6-5.1 3.6-3.1 0-5.7-2.6-5.7-5.8S8.9 5.8 12 5.8c1.8 0 3 .6 3.9 1.4l2.4-2.3C16.9 3.4 14.7 2.4 12 2.4 6.9 2.4 2.7 6.6 2.7 11.7S6.9 21 12 21c6 0 9.9-4.2 9.9-10 0-.7-.1-1.3-.2-1.9H12z"/>
  <path fill="#34A853" d="M3.7 14.5A8.3 8.3 0 0012 20.9c2.5 0 4.7-.9 6.3-2.5l-3-2.3c-.9.6-2.1 1-3.3 1-2.6 0-4.8-1.8-5.6-4.2z"/>
  <path fill="#4285F4" d="M21.8 11.1H12v3.6h5.9c-.3 1.7-1.4 3.1-3 4.1l3 2.3c2.1-1.9 3.3-4.8 3.3-8 0-.7-.1-1.3-.2-2z"/>
  <path fill="#FBBC05" d="M7 8.4a5.8 5.8 0 015-2.6c1.8 0 3 .6 3.9 1.4l2.4-2.3C16.9 3.4 14.7 2.4 12 2.4a8.3 8.3 0 00-8.3 8.3c0 1.3.3 2.6.8 3.8l3.1-2.4A5.7 5.7 0 017 8.4z"/>
  <title>Google</title>
</svg>
